<svg xmlns="http://www.w3.org/2000/svg" viewBox="0 0 800 800" width="100%" height="100%">
  <defs>
    <!-- Background Gradient for beautiful mockup display -->
    <radialGradient id="bgGrad" cx="50%" cy="50%" r="70%">
      <stop offset="0%" stop-color="#19062A" />
      <stop offset="100%" stop-color="#090111" />
    </radialGradient>

    <!-- Glowing Background Aura -->
    <radialGradient id="glowGrad" cx="50%" cy="50%" r="50%">
      <stop offset="0%" stop-color="#2DD4BF" stop-opacity="0.32" />
      <stop offset="100%" stop-color="#2DD4BF" stop-opacity="0" />
    </radialGradient>

    <!-- Symmetrical Outer Petal Gradient: Rich deep purple to warm magenta to luminous teal -->
    <linearGradient id="symmetricOuterGrad" x1="0%" y1="100%" x2="0%" y2="0%">
      <stop offset="0%" stop-color="#3D1052" />
      <stop offset="60%" stop-color="#C45BAA" />
      <stop offset="100%" stop-color="#2DD4BF" />
    </linearGradient>

    <!-- Symmetrical Inner Petal Gradient: Soft rose gold to luminous amber -->
    <linearGradient id="symmetricInnerGrad" x1="0%" y1="100%" x2="0%" y2="0%">
      <stop offset="0%" stop-color="#A21CAF" />
      <stop offset="60%" stop-color="#E8845C" />
      <stop offset="100%" stop-color="#FCD34D" />
    </linearGradient>

    <!-- Center Core Glow -->
    <radialGradient id="coreGlow" cx="50%" cy="50%" r="50%">
      <stop offset="0%" stop-color="#FAF6F0" />
      <stop offset="40%" stop-color="#2DD4BF" />
      <stop offset="100%" stop-color="#2DD4BF" stop-opacity="0" />
    </radialGradient>

    <!-- Soft ambient shadow filter -->
    <filter id="softShadow" x="-15%" y="-15%" width="130%" height="130%">
      <feDropShadow dx="0" dy="8" stdDeviation="15" flood-color="#05000A" flood-opacity="0.65" />
    </filter>
  </defs>

  <!-- Grounding twilight background canvas -->
  <rect width="100%" height="100%" rx="48" fill="url(#bgGrad)" />

  <!-- Ambient light glow -->
  <circle cx="400" cy="310" r="280" fill="url(#glowGrad)" />

  <!-- MAIN SYMMETRICAL EMBLEM GROUP -->
  <g transform="translate(400, 310)" filter="url(#softShadow)">
    
    <!-- Concentric Breathing Orbits represent continuous pacing and self-regulation -->
    <circle r="235" fill="none" stroke="#2DD4BF" stroke-width="1" stroke-dasharray="4 16" stroke-opacity="0.2" />
    <circle r="202" fill="none" stroke="#C45BAA" stroke-width="1.5" stroke-dasharray="140 16" stroke-opacity="0.3" />
    <circle r="170" fill="none" stroke="#E8845C" stroke-width="1" stroke-dasharray="2 8" stroke-opacity="0.25" />

    <!-- Pure circular nodes along focus paths -->
    <circle r="4" cy="-235" fill="#2DD4BF" />
    <circle r="3.5" cy="235" fill="#2DD4BF" stroke="#19062A" stroke-width="1" />
    <circle r="3" cx="202" fill="#C45BAA" />
    <circle r="3" cx="-202" fill="#C45BAA" />

    <!-- OUTER PETALS (Symmetrical 6-axis rotation, translucency blends beautifully) -->
    <g transform="rotate(0)">
      <path d="M 0,0 C -35,-65 -35,-130 0,-175 C 35,-130 35,-65 0,0 Z" fill="url(#symmetricOuterGrad)" opacity="0.35" />
    </g>
    <g transform="rotate(60)">
      <path d="M 0,0 C -35,-65 -35,-130 0,-175 C 35,-130 35,-65 0,0 Z" fill="url(#symmetricOuterGrad)" opacity="0.35" />
    </g>
    <g transform="rotate(120)">
      <path d="M 0,0 C -35,-65 -35,-130 0,-175 C 35,-130 35,-65 0,0 Z" fill="url(#symmetricOuterGrad)" opacity="0.35" />
    </g>
    <g transform="rotate(180)">
      <path d="M 0,0 C -35,-65 -35,-130 0,-175 C 35,-130 35,-65 0,0 Z" fill="url(#symmetricOuterGrad)" opacity="0.35" />
    </g>
    <g transform="rotate(240)">
      <path d="M 0,0 C -35,-65 -35,-130 0,-175 C 35,-130 35,-65 0,0 Z" fill="url(#symmetricOuterGrad)" opacity="0.35" />
    </g>
    <g transform="rotate(300)">
      <path d="M 0,0 C -35,-65 -35,-130 0,-175 C 35,-130 35,-65 0,0 Z" fill="url(#symmetricOuterGrad)" opacity="0.35" />
    </g>


    <!-- INNER PETALS (30 deg offset, smaller scale, creates gemstone lotus depth) -->
    <g transform="rotate(30)">
      <path d="M 0,0 C -22,-45 -22,-95 0,-125 C 22,-95 22,-45 0,0 Z" fill="url(#symmetricInnerGrad)" opacity="0.45" />
    </g>
    <g transform="rotate(90)">
      <path d="M 0,0 C -22,-45 -22,-95 0,-125 C 22,-95 22,-45 0,0 Z" fill="url(#symmetricInnerGrad)" opacity="0.45" />
    </g>
    <g transform="rotate(150)">
      <path d="M 0,0 C -22,-45 -22,-95 0,-125 C 22,-95 22,-45 0,0 Z" fill="url(#symmetricInnerGrad)" opacity="0.45" />
    </g>
    <g transform="rotate(210)">
      <path d="M 0,0 C -22,-45 -22,-95 0,-125 C 22,-95 22,-45 0,0 Z" fill="url(#symmetricInnerGrad)" opacity="0.45" />
    </g>
    <g transform="rotate(270)">
      <path d="M 0,0 C -22,-45 -22,-95 0,-125 C 22,-95 22,-45 0,0 Z" fill="url(#symmetricInnerGrad)" opacity="0.45" />
    </g>
    <g transform="rotate(330)">
      <path d="M 0,0 C -22,-45 -22,-95 0,-125 C 22,-95 22,-45 0,0 Z" fill="url(#symmetricInnerGrad)" opacity="0.45" />
    </g>

    <!-- Micro delicate wind swirls outlining the core energy -->
    <circle r="44" fill="none" stroke="#FAF6F0" stroke-width="0.75" stroke-dasharray="100 10" stroke-opacity="0.3" transform="rotate(-45)" />

    <!-- Glowing Sanctuary Core -->
    <circle cx="0" cy="0" r="30" fill="url(#coreGlow)" />
    <circle cx="0" cy="0" r="8" fill="#FAF6F0" />
    <circle cx="0" cy="0" r="4" fill="#19062A" />
  </g>

  <!-- BRAND MARK TYPOGRAPHY SECTION -->
  <g transform="translate(400, 640)">
    <!-- Primary Logotype: FlowHer -->
    <text text-anchor="middle" 
          font-family="'Playfair Display', 'Georgia', 'Times New Roman', serif" 
          font-size="52" 
          font-weight="normal" 
          letter-spacing="5" 
          fill="#FAF6F0">
      Flow<tspan fill="#C45BAA">Her</tspan><tspan fill="#2DD4BF" font-size="28" dy="-18">™</tspan>
    </text>

    <!-- Brand Subtitle / Core Purpose -->
    <text text-anchor="middle" 
          y="45"
          font-family="'Inter', 'Space Grotesk', sans-serif" 
          font-size="11.5" 
          font-weight="bold" 
          letter-spacing="9" 
          fill="#2DD4BF" 
          opacity="0.9">
      ADHD WORKSPACE &amp; ZEN SACRED CALM
    </text>

    <!-- Symmetrical lines grounding the logotype -->
    <line x1="-160" y1="22" x2="160" y2="22" stroke="#FAF6F0" stroke-width="0.75" stroke-opacity="0.15" />
    <line x1="-110" y1="65" x2="110" y2="65" stroke="#2DD4BF" stroke-width="1.5" stroke-opacity="0.3" />
  </g>

</svg>
